<?xml version="1.0" encoding="utf-8"?>
<!-- Generator: Adobe Illustrator 25.2.3, SVG Export Plug-In . SVG Version: 6.00 Build 0)  -->
<svg version="1.1" id="Camada_1" xmlns="http://www.w3.org/2000/svg" xmlns:xlink="http://www.w3.org/1999/xlink" x="0px" y="0px"
	 viewBox="0 0 500 500" style="enable-background:new 0 0 500 500;" xml:space="preserve">
<style type="text/css">
	.st0{fill:none;stroke:#E9E9EA;stroke-width:5;stroke-linecap:round;stroke-miterlimit:10;}
	.st1{fill:none;stroke:#E9E9EA;stroke-width:10;stroke-linecap:round;stroke-miterlimit:10;}
	.st2{fill:#E9E9EA;}
</style>
<path class="st0" d="M408.7,186.2"/>
<path class="st0" d="M273.3,186.2"/>
<path class="st1" d="M166.8,325.2H91.3c-38.4,0-69.5-31.1-69.5-69.5c0-38.4,31.1-69.5,69.5-69.5h182"/>
<line class="st1" x1="373.9" y1="325.2" x2="275" y2="325.2"/>
<path class="st1" d="M449.5,312c-11.5,8.3-25.5,13.2-40.8,13.2"/>
<path class="st1" d="M408.7,186.2c38.4,0,69.5,31.1,69.5,69.5c0,23.1-11.3,43.7-28.7,56.3"/>
<g>
	<path class="st2" d="M254.1,272.9v10c4.6,0,9.5,3.5,9.7,9.3l1.2,33.4l2,52.2c0.1,3.4-1.3,5.7-2.6,7c-1.9,1.9-4.4,3-7,3
		c-1.5,0-3-0.4-4.5-1.2L233,376.2c-1.7-0.9-3.7-1.4-5.6-1.4c-4.5,0-8.6,2.5-10.7,6.4l-18.1,34.2l-14.8-7.8l18.1-34.2
		c1.5-2.9,1.8-6.1,0.9-9.2c-1-3.1-3.1-5.6-5.9-7.1L177,346.7c-3.6-1.9-4.7-5-5-6.7c-0.5-2.9,0.3-6,2.2-8.1l0,0l0,0
		c0.6-0.7,1.3-1.3,2.1-1.8l72.6-45.6c1.6-1,3.3-1.5,5.1-1.5L254.1,272.9 M254,272.9c-3.5,0-7.1,1-10.4,3l-72.5,45.6
		c-1.7,1.1-3.1,2.3-4.3,3.7c-8.1,9.1-6,24.2,5.6,30.3l19.9,10.5c1,0.5,1.4,1.8,0.9,2.8l-18.5,35c-2.4,4.5-0.7,10,3.8,12.4l16.2,8.6
		c1.4,0.7,2.8,1.1,4.3,1.1c3.3,0,6.5-1.8,8.1-4.9l18.4-35c0.4-0.7,1.1-1.1,1.8-1.1c0.3,0,0.6,0.1,1,0.2l19.9,10.5
		c3,1.6,6.1,2.3,9.2,2.3c10.5,0,20.1-8.7,19.6-20.4l-1.9-52.2l-1.2-33.4C273.3,280.6,264,272.9,254,272.9L254,272.9z"/>
</g>
</svg>
